# xmcd CD database file
#
# Track frame offsets:
#	182
#	14630
#	29225
#	43980
#	59680
#	73590
#	88080
#	102612
#	115075
#	129435
#	144282
#	159485
#	173700
#	188037
#	201992
#	216222
#	228797
#	242650
#	257030
#	269120
#	283262
#	296335
#
# Disc length: 4135 seconds
#
# Revision: 5
# Processed by: cddbd v1.5.2PL0 Copyright (c) Steve Scherf et al.
# Submitted via: CDex 1.51
#
DISCID=5d102516
DTITLE=Jimmie Lunceford - Jimmie Lunceford and his Orchestra  { 1934-1935 }
DYEAR=1990
DGENRE=Jazz
TTITLE0=Chillun, Get Up
TTITLE1=Solitude
TTITLE2=Rain
TTITLE3=Since My Best Gal Turned Me Down
TTITLE4=Jealous
TTITLE5=Rhythm Is Our Business
TTITLE6=I'm Walking Through Heaven With You
TTITLE7=Shake Your Head  (From Side To Side)
TTITLE8=Sleepy Time Gal
TTITLE9=Bird Of Paradise
TTITLE10=Rhapsody Junior
TTITLE11=Runnin' Wild
TTITLE12=Four Or Five Times
TTITLE13=(If I Had)  Rhythm In My Nursery Rhymes
TTITLE14=Babs
TTITLE15=Swanee River
TTITLE16=Thunder
TTITLE17=Oh Boy
TTITLE18=I'll Take The South
TTITLE19=Avalon
TTITLE20=Charmaine
TTITLE21=Hittin' The Bottle
EXTD=YEAR: 1990
EXTT0=
EXTT1=
EXTT2=
EXTT3=
EXTT4=
EXTT5=
EXTT6=
EXTT7=
EXTT8=
EXTT9=
EXTT10=
EXTT11=
EXTT12=
EXTT13=
EXTT14=
EXTT15=
EXTT16=
EXTT17=
EXTT18=
EXTT19=
EXTT20=
EXTT21=
PLAYORDER=
